<svg version="1.2" xmlns="http://www.w3.org/2000/svg" viewBox="0 0 708 409" width="708" height="409">
	<style>
		.s0 { fill: #ffffff } 
	</style>
	<path id="path3820" class="s0" d="m173.96 366.31v-37.31l6.4-0.64c30.73-3.08 45.42-9.72 65.12-29.42 22.98-22.98 38.37-51.78 63.84-119.5 16.86-44.81 30.84-72.01 52.73-102.64 19.11-26.73 49.4-48.4 83.31-59.59 16.71-5.52 39.43-9.56 53.72-9.56h5.48v37.34 37.34l-6.39 0.56c-16.95 1.48-30.68 5.68-43.94 13.45-17.64 10.33-39.31 36.85-51.49 63.02-4.23 9.08-6.56 8.38 27.93 8.38h30.32v37.88 37.88l-46.5 0.25-46.5 0.25-5.12 11.3c-13.11 28.98-28.4 56.27-43.38 77.42-28.8 40.65-67.23 62.74-120.9 69.51-5.99 0.75-13.98 1.37-17.76 1.38h-6.87z"/>
	<path id="path1" class="s0" d="m48.25 229.93l-3.77-9.54h-18.81l-3.57 9.54h-12.76l20.38-48.59h11.39l20.18 48.59zm-13.04-35.62l-6.18 16.67h12.22zm75.49 11.19q0 6.38-2.37 11.01-2.37 4.64-6.25 7.63-3.87 2.98-8.75 4.39-4.87 1.4-9.88 1.4h-18.12v-48.59h17.57q5.15 0 10.16 1.2 5.01 1.21 8.92 3.98 3.91 2.78 6.32 7.45 2.4 4.67 2.4 11.53zm-12.22 0q0-4.12-1.34-6.83-1.34-2.71-3.57-4.32-2.23-1.61-5.07-2.3-2.85-0.69-5.87-0.69h-5.84v28.42h5.56q3.16 0 6.08-0.73 2.91-0.72 5.14-2.36 2.23-1.65 3.57-4.4 1.34-2.74 1.34-6.79zm70.62-0.07q0 5.77-1.99 10.54-1.99 4.77-5.52 8.17-3.54 3.39-8.41 5.24-4.87 1.86-10.57 1.86-5.7 0-10.54-1.86-4.83-1.85-8.37-5.24-3.53-3.4-5.52-8.17-1.99-4.77-1.99-10.54 0-5.83 1.99-10.53 1.99-4.7 5.52-8 3.54-3.29 8.37-5.08 4.84-1.78 10.54-1.78 5.7 0 10.57 1.78 4.87 1.79 8.41 5.08 3.53 3.3 5.52 8 1.99 4.7 1.99 10.53zm-12.56 0q0-3.15-1.03-5.9-1.03-2.74-2.85-4.7-1.82-1.96-4.39-3.09-2.57-1.13-5.66-1.13-3.09 0-5.63 1.13-2.54 1.13-4.39 3.09-1.85 1.96-2.85 4.7-0.99 2.75-0.99 5.9 0 3.3 1.03 6.08 1.02 2.77 2.84 4.77 1.82 1.99 4.36 3.12 2.54 1.13 5.63 1.13 3.09 0 5.63-1.13 2.53-1.13 4.39-3.12 1.85-2 2.88-4.77 1.03-2.78 1.03-6.08zm58.19 10.36q0 3.99-1.58 6.7-1.58 2.71-4.18 4.35-2.61 1.65-5.94 2.37-3.33 0.72-6.83 0.72h-19.35v-48.59h19.35q2.82 0 5.77 0.59 2.95 0.58 5.35 1.99 2.4 1.4 3.91 3.8 1.51 2.41 1.51 6.11 0 4.05-2.19 6.69-2.2 2.65-5.77 3.81v0.14q2.06 0.34 3.88 1.27 1.82 0.93 3.16 2.37 1.33 1.44 2.12 3.36 0.79 1.92 0.79 4.32zm-13.31-20.38q0-2.47-1.89-3.6-1.89-1.13-5.59-1.13h-5.77v10.02h6.32q3.29 0 5.11-1.34 1.82-1.34 1.82-3.95zm1.58 19.29q0-3.02-2.27-4.19-2.26-1.17-6.04-1.17h-6.52v11.12h6.59q1.37 0 2.85-0.24 1.47-0.24 2.68-0.85 1.2-0.62 1.95-1.76 0.76-1.13 0.76-2.91zm19.49 15.23v-48.59h32.67v9.96h-21.34v9.12h20.17v9.41h-20.17v10.08h22.58v10.02z"/>
	<path id="path2" class="s0" d="m502.3 191.32v10.04h18.86v9.71h-18.86v18.92h-11.63v-48.72h32.07v10.05zm28 38.67v-48.72h11.84v38.47h18.85v10.25zm69.23 0l-3.78-9.56h-18.86l-3.58 9.56h-12.8l20.44-48.72h11.42l20.24 48.72zm-13.08-35.71l-6.19 16.72h12.25zm55.93-0.34q-1.51-1.93-3.95-3.07-2.44-1.14-4.72-1.14-1.17 0-2.37 0.21-1.21 0.21-2.17 0.79-0.96 0.59-1.62 1.52-0.65 0.93-0.65 2.37 0 1.24 0.52 2.07 0.51 0.82 1.51 1.44 1 0.62 2.38 1.14 1.37 0.51 3.09 1.06 2.48 0.83 5.16 1.83 2.69 1 4.89 2.65 2.2 1.65 3.65 4.09 1.44 2.44 1.44 6.09 0 4.2-1.55 7.26-1.54 3.06-4.16 5.06-2.62 2-5.99 2.96-3.37 0.96-6.95 0.96-5.23 0-10.12-1.82-4.88-1.83-8.11-5.2l7.7-7.84q1.79 2.2 4.72 3.68 2.92 1.48 5.81 1.48 1.31 0 2.55-0.28 1.24-0.27 2.17-0.89 0.92-0.62 1.47-1.65 0.56-1.04 0.56-2.48 0-1.38-0.69-2.34-0.69-0.96-1.96-1.75-1.28-0.8-3.17-1.45-1.89-0.65-4.3-1.41-2.34-0.76-4.57-1.79-2.24-1.03-4-2.65-1.75-1.62-2.82-3.92-1.07-2.31-1.07-5.61 0-4.06 1.66-6.95 1.65-2.89 4.33-4.75 2.69-1.86 6.06-2.71 3.37-0.87 6.81-0.87 4.13 0 8.43 1.52 4.3 1.51 7.54 4.47zm45.68 36.06v-20.37h-18.99v20.37h-11.77v-48.72h11.77v18.44h18.99v-18.44h11.77v48.72z"/>
</svg>