<svg version="1.2" xmlns="http://www.w3.org/2000/svg" viewBox="0 0 3200 1195" width="3200" height="1195">
	<style>
		.s0 { fill: #ffffff } 
		.s1 { fill: #e62229 } 
		.s2 { fill: #019b43 } 
	</style>
	<g id="g1297">
		<g id="g1273">
			<g id="g1271">
				<path id="rect1245" fill-rule="evenodd" class="s0" d="m2414.29 898.16h85.08v296.84h-85.08z"/>
				<g id="g1255">
					<path id="polygon1247" fill-rule="evenodd" class="s0" d="m2616.83 997.47l-85.09 27.2v-126.51h85.09z"/>
					<path id="polygon1249" fill-rule="evenodd" class="s0" d="m2870.32 1024.67l-85.09-27.2v-99.31h85.08z"/>
					<path id="polygon1251" fill-rule="evenodd" class="s0" d="m2632.61 1195h102.53l-175.78-296.84-27.62 126.51z"/>
					<path id="polygon1253" fill-rule="evenodd" class="s0" d="m2769.45 1195h-102.53l175.77-296.84 27.63 126.51z"/>
				</g>
				<path id="path1257" class="s0" d="m317.73 919.28l-17.44 29.46v-50.58h-102.1c-14 0-27.09 7.92-34.91 21.12l-163.28 275.72h102.53l131.17-221.49h51.92l-131.17 221.49h102.54l136.93-231.22c1.73-2.93 5.75-1.54 5.75 1.99v229.23h85.09v-296.84h-132.12c-14 0-27.09 7.92-34.91 21.12z"/>
				<path id="path1259" class="s0" d="m663.05 961.21h155.41v-63.05l-129.03-0.53h-91.27c-7.05 0-13.63 3.99-17.56 10.63l-40.81 68.91v217.83h278.67v-63.05h-193.58v-53.64h156.25l37.33-63.05h-193.58v-8.63l20.6-34.79c3.94-6.65 10.53-10.63 17.57-10.63z"/>
				<path id="path1261" class="s0" d="m3043.67 961.21h155.41v-63.05l-129.04-0.53h-91.27c-7.04 0-13.62 3.99-17.56 10.63l-40.8 68.91v217.83h278.67v-63.05h-193.59v-53.64h156.25l37.34-63.05h-193.59v-8.63l20.6-34.79c3.94-6.65 10.53-10.63 17.58-10.63z"/>
				<path id="path1263" class="s0" d="m1555.01 1195l-163.12-275.47c-7.91-13.36-21.15-21.37-35.33-21.37h-155.03v296.84h85.09v-116.43-117.36h14.17c8.28 0 16.01 4.68 20.63 12.48l62.11 104.88h-96.91l37.34 63.05h0.14 96.77l31.61 53.38c0 0 102.53 0 102.53 0z"/>
				<path id="path1265" class="s0" d="m1157.42 1015.52h-9.1-75.67-27.02l-37.18 62.79h36.33v0.26h27.87v53.38h-142.11v-107.98l30.87-52.13c3.93-6.65 10.52-10.63 17.58-10.63h161.74v-63.05h-135.69l0.31-0.53h-87.92c-9.13 0-17.67 5.17-22.77 13.77l-49.21 83.11v166.82c0 18.6 13.27 33.67 29.63 33.67h33.68 21.78 142.11 55.45c16.37 0 29.64-15.07 29.64-33.67v-29.38-116.43z"/>
				<path id="path1267" class="s0" d="m1967.32 926.06c-10.32-17.44-27.61-27.9-46.12-27.9h-72.93-159.79v296.84h214.39 18.33c18.51 0 35.8-10.46 46.12-27.9l60.38-101.97c2.19-3.7 3.36-8.05 3.36-12.51v-12.09c0-4.45-1.17-8.81-3.36-12.5zm-81.72 205.89h-112.03v-170.74h112.03l42.6 71.93c4.81 8.12 4.81 18.75 0 26.87z"/>
				<path id="path1269" class="s0" d="m2295.94 1084.27l48.86-82.52c2.19-3.69 3.36-8.04 3.36-12.5v-10.32c0-4.45-1.17-8.8-3.36-12.49l-23.91-40.38c-10.33-17.44-27.62-27.9-46.12-27.9h-72.93-161.19v296.84h85.09v-233.79h108c3.4 0 6.57 1.92 8.47 5.12l6.69 11.29c2.31 3.92 2.31 9.03 0 12.94l-33.18 56.02h-44.63l87.89 148.42h102.53z"/>
			</g>
		</g>
		<g id="g1295">
			<path id="polygon1277" fill-rule="evenodd" class="s1" d="m1645.37 836.92v-815.4l-442.76 658.11v-658.11l-548.6 815.46z"/>
			<path id="polygon1279" fill-rule="evenodd" class="s2" d="m2023.35 836.98v-797.05h-263.14v21.23 775.82z"/>
			<path id="path1281" class="s2" d="m2206.67 451.47c-6.55 65.88-62.13 117.32-129.72 117.32h-20.49v268.19h53.49c215.74 0 391.42-171.44 398.29-385.51z"/>
			<path id="path1283" class="s2" d="m2382.03 147.31l-218.47 193.69c6.88 6.13 13.1 12.97 18.56 20.42l248.79-159.17c-14.58-19.79-30.96-38.18-48.88-54.94z"/>
			<path id="path1285" class="s2" d="m2098.31 309.82c9.04 1.49 17.77 3.89 26.09 7.14l119.61-253.91c-22.67-8.1-46.29-14.17-70.65-18.07z"/>
			<path id="path1287" class="s2" d="m2348.2 119c-19.96-14.92-41.37-28-63.98-39.02l-151.77 240.47c8.71 4.11 16.9 9.16 24.42 15.01z"/>
			<path id="path1289" class="s2" d="m2201.08 398.6c2.35 7.35 4.08 14.97 5.11 22.83h301.9c-1.06-25.12-4.47-49.63-9.96-73.33z"/>
			<path id="path1291" class="s2" d="m2485.48 304.86c-8.1-22.77-18.2-44.6-30.11-65.25l-268.39 128.96c4.35 6.84 8.07 14.11 11.1 21.73z"/>
			<path id="path1293" class="s2" d="m2131.85 40.54q-10.87-0.6-21.9-0.61h-53.49v268.11h20.49q6.5 0.01 12.84 0.64z"/>
		</g>
	</g>
</svg>