<?xml version="1.0" encoding="utf-8"?>
<!-- Generator: Adobe Illustrator 27.0.0, SVG Export Plug-In . SVG Version: 6.00 Build 0)  -->
<svg version="1.1" id="Capa_1" xmlns="http://www.w3.org/2000/svg" xmlns:xlink="http://www.w3.org/1999/xlink" x="0px" y="0px"
	 viewBox="0 0 24 20" style="enable-background:new 0 0 24 20;" xml:space="preserve">
<style type="text/css">
	.st0{fill:#FFFFFF;}
</style>
<path class="st0" d="M8.3,10c2.2,0,4-1.8,4-4s-1.8-4-4-4s-4,1.8-4,4S6,10,8.3,10z M9.8,11.5H6.7c-3,0-5.4,2.4-5.4,5.4
	c0,0.6,0.5,1.1,1.1,1.1h11.8c0.6,0,1.1-0.5,1.1-1.1C15.3,13.9,12.8,11.5,9.8,11.5z M17.7,12h-2.3c1.4,1.2,2.3,2.9,2.3,4.9
	c0,0.4-0.1,0.8-0.3,1.1h4.3c0.6,0,1-0.5,1-1C22.7,14.2,20.5,12,17.7,12z M16.2,10c1.9,0,3.5-1.6,3.5-3.5c0-1.9-1.6-3.5-3.5-3.5
	c-0.8,0-1.5,0.3-2.1,0.7c0.4,0.7,0.6,1.5,0.6,2.3c0,1.1-0.4,2.1-1,3C14.4,9.6,15.3,10,16.2,10z"/>
</svg>
