<?xml version="1.0" encoding="utf-8"?>
<!-- Generator: Adobe Illustrator 27.0.0, SVG Export Plug-In . SVG Version: 6.00 Build 0)  -->
<svg version="1.1" id="Capa_1" xmlns="http://www.w3.org/2000/svg" xmlns:xlink="http://www.w3.org/1999/xlink" x="0px" y="0px"
	 viewBox="0 0 32 32" style="enable-background:new 0 0 32 32;" xml:space="preserve">
<style type="text/css">
	.st0{fill:#FFFFFF;}
</style>
<g>
	<path class="st0" d="M16,7C9.1,7,3.5,12.6,3.5,19.5S9.1,32,16,32c6.9,0,12.5-5.6,12.5-12.5C28.5,12.6,22.9,7,16,7z M16,21.4
		c-0.5,0-1-0.2-1.3-0.5c-0.7-0.7-0.7-1.9,0-2.7l5.1-5.1c0.7-0.7,1.9-0.7,2.7,0c0.7,0.7,0.7,1.9,0,2.7l-5.1,5.1
		C17,21.2,16.5,21.4,16,21.4z"/>
	<path class="st0" d="M19,0l-6,0c-1.1,0-2,0.9-2,2v0c0,1.1,0.9,2,2,2h6c1.1,0,2-0.9,2-2v0C21,0.9,20.1,0,19,0z"/>
</g>
</svg>
