<?xml version="1.0" encoding="utf-8"?>
<!-- Generator: Adobe Illustrator 27.0.0, SVG Export Plug-In . SVG Version: 6.00 Build 0)  -->
<svg version="1.1" id="Capa_1" xmlns="http://www.w3.org/2000/svg" xmlns:xlink="http://www.w3.org/1999/xlink" x="0px" y="0px"
	 viewBox="0 0 32 32" style="enable-background:new 0 0 32 32;" xml:space="preserve">
<style type="text/css">
	.st0{fill:#FFFFFF;}
</style>
<g>
	<path class="st0" d="M14,4.4v10.2l-8.9,5.1c-0.7,0.4-1.6,0-1.8-0.7c-0.3-1-0.4-2.1-0.4-3.2c0-6,4-11.1,9.5-12.6
		C13.2,3,14,3.6,14,4.4z"/>
	<path class="st0" d="M29.1,15.8c0,6.5-4.8,12-11.1,12.9c-0.7,0.1-1.3,0.1-2,0.1s-1.3,0-2-0.1c-2.8-0.4-5.2-1.7-7.1-3.6
		c-0.6-0.6-0.4-1.5,0.3-1.9l6.9-4l4-2.3V4.4c0-0.8,0.8-1.4,1.5-1.2c2.7,0.7,5,2.3,6.7,4.4c0.8,1,1.5,2.2,2,3.5
		C28.8,12.5,29.1,14.1,29.1,15.8z"/>
</g>
</svg>
